<svg aria-hidden="true" style="position: absolute; width: 0; height: 0; overflow: hidden;" version="1.1" xmlns="http://www.w3.org/2000/svg" xmlns:xlink="http://www.w3.org/1999/xlink">
<defs>
<symbol id="icon-whatsapp" viewBox="0 0 32 32">
<path d="M16.020 0.25c-8.672 0-15.731 7.053-15.735 15.725-0.002 2.772 0.724 5.478 2.101 7.863l-2.135 7.912 8.241-1.947c2.298 1.254 4.885 1.912 7.518 1.913h0.006c8.67 0 15.727-7.055 15.732-15.725 0.003-4.204-1.631-8.156-4.602-11.13-2.97-2.972-6.918-4.61-11.127-4.611zM16.017 3.4c3.364 0.002 6.526 1.313 8.902 3.688 2.377 2.378 3.682 5.538 3.679 8.899-0.003 6.936-5.645 12.578-12.585 12.578-2.099-0.002-4.179-0.529-6.011-1.529l-1.061-0.578-4.273 1.009 0.757-2.812 0.341-1.261-0.652-1.132c-1.099-1.903-1.681-4.078-1.68-6.288 0.003-6.933 5.647-12.575 12.581-12.575zM10.452 8.716c-0.263 0-0.688 0.098-1.049 0.492-0.361 0.392-1.378 1.342-1.378 3.276s1.409 3.804 1.606 4.067c0.195 0.261 2.72 4.356 6.715 5.931 3.32 1.309 3.994 1.051 4.716 0.984 0.721-0.065 2.327-0.949 2.655-1.867s0.328-1.708 0.231-1.87c-0.098-0.164-0.36-0.261-0.754-0.458-0.392-0.197-2.325-1.146-2.686-1.277s-0.624-0.197-0.886 0.197c-0.261 0.394-1.013 1.277-1.243 1.538-0.23 0.263-0.458 0.298-0.852 0.102-0.394-0.198-1.66-0.615-3.162-1.953-1.169-1.041-1.957-2.326-2.187-2.719-0.228-0.392-0.022-0.608 0.175-0.803 0.176-0.176 0.391-0.459 0.588-0.689 0.195-0.23 0.263-0.394 0.394-0.655s0.064-0.492-0.034-0.689c-0.098-0.197-0.862-2.138-1.212-2.916-0.295-0.654-0.606-0.669-0.886-0.68-0.228-0.009-0.489-0.009-0.751-0.009z"></path>
</symbol>
<symbol id="icon-burger" viewBox="0 0 32 32">
<path d="M0 26.667v-3.556h32v3.556h-32zM0 17.778v-3.556h32v3.556h-32zM0 8.889v-3.556h32v3.556h-32z"></path>
</symbol>
<symbol id="icon-restart" viewBox="0 0 32 32">
<path d="M14.266 32q-5.247-0.65-8.694-4.575t-3.447-9.214q0-2.862 1.127-5.485t3.209-4.575l2.472 2.472q-1.648 1.474-2.493 3.425t-0.846 4.163q0 3.816 2.428 6.743t6.244 3.577v3.469zM17.734 32v-3.469q3.772-0.694 6.222-3.599t2.45-6.721q0-4.336-3.035-7.371t-7.371-3.035h-0.13l1.908 1.908-2.428 2.428-6.070-6.070 6.070-6.070 2.428 2.428-1.908 1.908h0.13q5.81 0 9.843 4.033t4.033 9.843q0 5.247-3.447 9.171t-8.694 4.618z"></path>
</symbol>
<symbol id="icon-expand" viewBox="0 0 32 32">
<path d="M0 32v-13.714h4.571v9.143h9.143v4.571h-13.714zM27.429 13.714v-9.143h-9.143v-4.571h13.714v13.714h-4.571z"></path>
</symbol>
<symbol id="icon-collapse" viewBox="0 0 32 32">
<path d="M13.714 18.286v13.714h-4.571v-9.143h-9.143v-4.571h13.714zM22.857 0v9.143h9.143v4.571h-13.714v-13.714h4.571z"></path>
</symbol>
<symbol id="icon-cross" viewBox="0 0 32 32">
<path d="M0.013 5.731l5.705-5.705 26.269 26.269-5.705 5.705-26.269-26.269z"></path>
<path d="M0.013 26.269l26.269-26.269 5.705 5.705-26.269 26.269-5.705-5.705z"></path>
</symbol>
<symbol id="icon-wide-arrow" viewBox="0 0 32 32">
<path d="M21.526 16l-13.586 13.963c-0.462 0.475-0.452 1.235 0.023 1.697s1.235 0.452 1.697-0.023l14.4-14.8c0.453-0.466 0.453-1.208 0-1.674l-14.4-14.8c-0.462-0.475-1.222-0.485-1.697-0.023s-0.485 1.222-0.023 1.697l13.586 13.963z"></path>
</symbol>
<symbol id="icon-arrow-wide-left" viewBox="0 0 32 32">
<path d="M10.474 16l13.586-13.963c0.462-0.475 0.452-1.235-0.023-1.697s-1.235-0.452-1.697 0.023l-14.4 14.8c-0.453 0.466-0.453 1.208 0 1.674l14.4 14.8c0.462 0.475 1.222 0.485 1.697 0.023s0.485-1.222 0.023-1.697l-13.586-13.963z"></path>
</symbol>
<symbol id="icon-arrow-right" viewBox="0 0 32 32">
<path d="M18.4 16l-12.267-12.267 3.733-3.733 16 16-16 16-3.733-3.733 12.267-12.267z"></path>
</symbol>
<symbol id="icon-star" viewBox="0 0 32 32">
<path d="M6.12 31.2l2.6-11.24-8.72-7.56 11.52-1 4.48-10.6 4.48 10.6 11.52 1-8.72 7.56 2.6 11.24-9.88-5.96-9.88 5.96z"></path>
</symbol>
<symbol id="icon-expand1" viewBox="0 0 32 32">
<path d="M28.8 8v-2.538l-10.538 10.538 10.538 10.538v-2.538c0-0.884 0.716-1.6 1.6-1.6s1.6 0.716 1.6 1.6v0 6.4c0 0.884-0.716 1.6-1.6 1.6v0h-6.4c-0.884 0-1.6-0.716-1.6-1.6s0.716-1.6 1.6-1.6v0h2.538l-10.538-10.538-10.538 10.538h2.538c0.884 0 1.6 0.716 1.6 1.6s-0.716 1.6-1.6 1.6v0h-6.4c-0.884 0-1.6-0.716-1.6-1.6v0-6.4c0-0.884 0.716-1.6 1.6-1.6s1.6 0.716 1.6 1.6v0 2.538l10.538-10.538-10.538-10.538v2.538c0 0.884-0.716 1.6-1.6 1.6s-1.6-0.716-1.6-1.6v0-6.4c0-0.884 0.716-1.6 1.6-1.6v0h6.4c0.884 0 1.6 0.716 1.6 1.6s-0.716 1.6-1.6 1.6v0h-2.538l10.538 10.538 10.538-10.538h-2.538c-0.884 0-1.6-0.716-1.6-1.6s0.716-1.6 1.6-1.6v0h6.4c0.884 0 1.6 0.716 1.6 1.6v0 6.4c0 0.884-0.716 1.6-1.6 1.6s-1.6-0.716-1.6-1.6v0z"></path>
</symbol>
<symbol id="icon-telegram-solid" viewBox="0 0 32 32">
<path d="M30.102 2.162c-0.354 0.016-0.699 0.114-1.011 0.239-0.308 0.124-2.081 0.881-4.699 2s-6.022 2.577-9.396 4.023c-6.748 2.891-13.378 5.735-13.378 5.735l0.048-0.018c0 0-0.4 0.134-0.806 0.416-0.203 0.141-0.421 0.324-0.6 0.59s-0.309 0.643-0.26 1.042c0.173 1.401 1.625 1.798 1.625 1.798l0.006 0.003 6.479 2.217c0.165 0.551 1.965 6.558 2.361 7.831 0.219 0.703 0.423 1.109 0.637 1.386 0.107 0.139 0.219 0.246 0.343 0.324 0.049 0.031 0.101 0.055 0.152 0.075 0.001 0 0.002-0 0.003 0 0.006 0.003 0.012 0.003 0.018 0.006l-0.017-0.004c0.012 0.005 0.024 0.013 0.036 0.017 0.023 0.008 0.037 0.008 0.067 0.014 0.742 0.259 1.356-0.222 1.356-0.222l0.026-0.020 3.98-3.691 6.459 5.036 0.081 0.037c1.131 0.502 2.153 0.222 2.719-0.239s0.789-1.055 0.789-1.055l0.024-0.063 4.746-24.737c0.121-0.553 0.139-1.032 0.024-1.464s-0.393-0.808-0.742-1.016c-0.349-0.208-0.714-0.276-1.069-0.26zM30.14 3.642c0.144-0.007 0.251 0.010 0.284 0.030s0.049 0.017 0.081 0.139c0.032 0.122 0.050 0.379-0.038 0.78l-0.003 0.009-4.719 24.593c-0.011 0.025-0.11 0.252-0.334 0.435-0.229 0.186-0.484 0.332-1.16 0.048l-7.266-5.66-2.112-1.585 11.87-13.966c0.108-0.126 0.174-0.291 0.174-0.472 0-0.402-0.326-0.728-0.728-0.728-0.007 0-0.013 0-0.020 0l0.001-0c-0.144 0.004-0.277 0.049-0.388 0.124l0.003-0.002-17.177 11.451-6.489-2.222c0 0-0.644-0.359-0.675-0.608-0.002-0.014-0.009-0.001 0.024-0.051s0.118-0.134 0.223-0.208c0.211-0.147 0.452-0.236 0.452-0.236l0.024-0.009 0.024-0.010c0 0 6.631-2.845 13.378-5.735 3.374-1.445 6.777-2.902 9.394-4.021s4.508-1.924 4.668-1.989c0.182-0.073 0.363-0.103 0.507-0.109zM22.268 11.483l-9.006 10.595c-0.013 0.015-0.026 0.032-0.038 0.050l-0.002 0.002c-0.013 0.017-0.026 0.037-0.038 0.058l-0.002 0.003c-0.048 0.081-0.082 0.175-0.095 0.276l-0 0.004c0 0.001 0 0.002 0 0.003s0 0.002 0 0.003v-0l-1.173 5.273c-0.020-0.057-0.033-0.078-0.054-0.145v-0.001c-0.372-1.197-2.071-6.862-2.306-7.646l12.713-8.476zM14.283 23.809l1.618 1.214-2.377 2.203 0.759-3.417z"></path>
</symbol>
<symbol id="icon-telegram" viewBox="0 0 31 32">
<path d="M15.5 0.5c-8.563 0-15.5 6.938-15.5 15.5s6.938 15.5 15.5 15.5 15.5-6.938 15.5-15.5-6.938-15.5-15.5-15.5zM22.688 11.044c-0.231 2.45-1.244 8.4-1.756 11.144-0.219 1.163-0.644 1.55-1.056 1.587-0.9 0.081-1.581-0.594-2.456-1.169-1.363-0.894-2.137-1.45-3.456-2.325-1.531-1.006-0.537-1.563 0.331-2.469 0.231-0.238 4.194-3.844 4.269-4.169 0.012-0.044 0.019-0.194-0.075-0.275s-0.225-0.050-0.319-0.031q-0.206 0.044-6.537 4.319-0.925 0.637-1.681 0.619c-0.556-0.012-1.619-0.313-2.412-0.569-0.969-0.313-1.744-0.481-1.675-1.019q0.050-0.419 1.156-0.856 6.775-2.95 9.037-3.894c4.306-1.787 5.2-2.1 5.781-2.113 0.131 0 0.413 0.031 0.6 0.181 0.119 0.105 0.199 0.251 0.218 0.416l0 0.003c0.023 0.134 0.037 0.289 0.037 0.447 0 0.061-0.002 0.121-0.006 0.18l0-0.008z"></path>
</symbol>
<symbol id="icon-viber" viewBox="0 0 32 32">
<path d="M27.75 3.116c-0.794-0.731-4.006-3.062-11.167-3.093 0 0-8.443-0.506-12.555 3.268-2.287 2.287-3.093 5.643-3.181 9.799s-0.194 11.942 7.312 14.054h0.006l-0.006 3.225s-0.050 1.306 0.812 1.569c1.037 0.325 1.65-0.669 2.643-1.737 0.544-0.587 1.294-1.45 1.862-2.106 5.137 0.431 9.080-0.556 9.53-0.7 1.037-0.337 6.905-1.087 7.855-8.874 0.987-8.037-0.475-13.111-3.112-15.404zM28.619 17.933c-0.806 6.499-5.562 6.912-6.437 7.193-0.375 0.119-3.843 0.981-8.199 0.7 0 0-3.25 3.918-4.262 4.937-0.331 0.331-0.694 0.3-0.687-0.356 0-0.431 0.025-5.356 0.025-5.356-0.006 0-0.006 0 0 0-6.362-1.762-5.987-8.393-5.918-11.861s0.725-6.312 2.662-8.224c3.481-3.156 10.649-2.687 10.649-2.687 6.056 0.025 8.955 1.85 9.63 2.462 2.231 1.912 3.368 6.487 2.537 13.192zM19.932 12.884c0.025 0.537-0.781 0.575-0.806 0.037-0.069-1.375-0.712-2.043-2.037-2.118-0.537-0.031-0.487-0.837 0.044-0.806 1.744 0.094 2.712 1.094 2.8 2.887zM21.201 13.59c0.063-2.65-1.594-4.724-4.737-4.956-0.531-0.037-0.475-0.844 0.056-0.806 3.625 0.262 5.556 2.756 5.487 5.781-0.006 0.537-0.819 0.512-0.806-0.019zM24.138 14.427c0.006 0.537-0.806 0.544-0.806 0.006-0.038-5.093-3.431-7.868-7.549-7.899-0.531-0.006-0.531-0.806 0-0.806 4.606 0.031 8.311 3.212 8.355 8.699zM23.432 20.558v0.012c-0.675 1.187-1.937 2.5-3.237 2.081l-0.012-0.019c-1.319-0.369-4.424-1.968-6.387-3.531-1.012-0.8-1.937-1.744-2.65-2.65-0.644-0.806-1.294-1.762-1.925-2.912-1.331-2.406-1.625-3.481-1.625-3.481-0.419-1.3 0.887-2.562 2.081-3.237h0.012c0.575-0.3 1.125-0.2 1.494 0.244 0 0 0.775 0.925 1.106 1.381 0.312 0.425 0.731 1.106 0.95 1.487 0.381 0.681 0.144 1.375-0.231 1.662l-0.75 0.6c-0.381 0.306-0.331 0.875-0.331 0.875s1.112 4.206 5.268 5.268c0 0 0.569 0.050 0.875-0.331l0.6-0.75c0.287-0.375 0.981-0.612 1.662-0.231 0.919 0.519 2.087 1.325 2.862 2.056 0.437 0.356 0.537 0.9 0.237 1.475z"></path>
</symbol>
</defs>
</svg>
